<svg xmlns="http://www.w3.org/2000/svg" width="1024" height="1024"><path d="M0 0h1024v1024H0z"/><path fill="#B3F233" d="M496 48h2c1.11 1.478 1.11 1.478 2.32 3.55l1.36 2.291 1.445 2.471C507.42 63.496 511.904 70.354 517 77l2.328 3.098c8.458 11.199 17.538 21.799 27.074 32.09a552 552 0 0 1 6.785 7.5c4.137 4.61 8.375 9.12 12.625 13.624 19.554 20.74 19.554 20.74 27.06 30.098 2.047 2.492 4.183 4.853 6.378 7.215 6.418 7.056 12.05 14.738 17.75 22.375l1.51 2.024c6.35 8.532 12.492 17.193 18.49 25.976 4.692-.992 9.315-2.053 13.918-3.402 12.955-3.794 25.666-6.167 39.082-7.598l3.45-.398c30.162-3.046 64.03 1.3 91.55 14.398l1.797.839C807.192 234.408 824.485 246.592 840 263c-3.478 1.739-7.215-.534-10.75-1.687-17.413-5.338-33.817-7.687-52-7.813l-2.336-.032c-14.702-.155-29.183 2.04-42.914 7.532l-1 2 1.86.13c6.072.506 11.636 1.576 17.452 3.37l2.58.788C785.1 277.479 814.786 295.505 839 319l1.793 1.715c13.996 13.419 24.843 27.614 34.915 44.165a459 459 0 0 0 3.288 5.296C889.882 387.95 899.004 409.44 903 430l-1 2-1.617-1.633a6283 6283 0 0 0-7.383-7.43l-2.543-2.568c-4.986-5.006-10.07-9.798-15.457-14.369l-2.95-2.555C852.122 386.558 829.679 374.704 806 364c1.39 3.833 3.198 6.976 5.438 10.375C825.842 397.262 834.98 423.305 839 450l.533 3.517c1.413 10.17 1.828 20.16 1.78 30.42l-.006 2.436c-.095 25.15-2.932 50.783-11.307 74.627l-1.14 3.527C822.461 584.191 815.23 605.742 802 622h-1c-.087-4.834.099-9.446.712-14.238 5.193-40.776-1.236-88.12-22.68-123.766C778 482 778 482 778 479h-2l.105 2.324c1.677 68.748-37.594 145.529-83.425 194.785-1.739 1.793-1.739 1.793-2.68 3.891h-2l-.787 1.772c-1.3 2.387-2.703 3.961-4.627 5.873l-2.059 2.052-2.152 2.115-2.082 2.08C658.143 711.89 637.52 726.373 616 740c-.85.55-1.702 1.1-2.578 1.668C608.232 745 608.232 745 606 745c1.286-3.492 2.887-6.671 4.716-9.909 4.55-8.1 7.778-16.338 10.648-25.157a240 240 0 0 1 1.788-5.184c5.392-15.299 7.039-30.314 6.91-46.437l-.013-3.319q-.018-3.998-.049-7.994l-1.504 2.895C618.46 669.067 606.35 686.795 592 703l-2.16 2.46A590 590 0 0 1 583 713l-1.64 1.793c-8.416 9.182-17.028 17.958-26.36 26.207l-1.812 1.613c-18.382 16.318-38.182 30.765-59.563 42.95l-1.98 1.138c-1.512.835-3.075 1.578-4.645 2.299l-2-1 2.168-2.945C500.665 766.477 511.476 746.868 521 726l1.31-2.832c2.48-5.39 4.816-10.791 6.878-16.356l.748-1.958c1.703-4.558 2.952-9.117 4.064-13.854-13.307 3.1-25.59 7.29-38 13l-1.917.867C480.463 711.08 467.464 719.372 456 729l-1.548 1.284C412.188 765.394 382.416 817.854 377 873c-.149 2.882-.187 5.76-.203 8.645l-.017 2.452q-.014 2.562-.02 5.125c-.01 2.546-.04 5.09-.072 7.635-.056 8.559.323 16.877 1.64 25.342l.354 2.281c1.224 7.109 3.587 13.77 6.177 20.485l.942 2.482q.966 2.534 1.945 5.063l.926 2.455.847 2.207C390 959 390 959 389 961c-15.027-15.109-23.919-35.865-30-56l-.728-2.238c-2.08-6.555-3.33-13.1-4.397-19.887l-.512-3.129c-1.396-8.632-2.519-17.004-2.531-25.75l-.01-2.548a1814 1814 0 0 1-.007-5.317c-.002-2.662-.02-5.323-.04-7.985-.048-14.281 1.521-27.84 4.475-41.833l.65-3.088c10.504-48.383 37.171-98.9 79.1-127.225 10.457-6.715 21.67-12.06 33.313-16.375 7.165-2.699 13.905-6.069 20.69-9.594a425 425 0 0 1 5.75-2.902c13.332-6.733 25.715-15.185 36.462-25.582C533 610 533 610 535 610l.746-1.754c1.453-2.602 3.124-4.169 5.317-6.183C554.643 588.7 562.957 571.429 567 553l.867-3.7c1.532-6.748 2.671-13.392 3.133-20.3h2c2.957 9.46 3.157 18.513 3.125 28.375l.012 3.54c-.02 18.19-.02 18.19-3.137 26.085l1-1 1.313-1.285c21.082-22.205 27.54-55.225 27.003-84.758-.65-16.988-6.786-32.822-13.957-48.05-3.32-7.101-5.923-13.117-3.359-20.97 2.905-4.266 6.924-7.878 11.883-9.585 11.804-1.96 23.43.186 33.367 6.898A190 190 0 0 1 635 432l2.3 1.809C649.488 443.932 655.756 456.8 662 471c1.305-19.471-6.78-39.786-19.32-54.556-9.545-10.738-20.748-18.418-34.68-22.444l-3.363-1.078c-6.535-1.59-13.327-1.313-20.012-1.297l-2.2-.001c-13.07.023-25.6 1.454-38.458 3.841-4.847.874-9.719 1.575-14.592 2.285l-4.914.734L521 399v-2c15.488-8.032 30.946-15.565 48.07-19.309 2.805-.39 2.805-.39 3.93-1.691 2.519-.562 5.029-1.08 7.563-1.562A1693.619 1693.619 0 0 1 588 373l.999-3.001c-9.464-1.75-18.634-2.353-28.25-2.312l-2.06.004c-10.57.042-20.408.81-30.69 3.308q-2.255.496-4.512.984c-6.4 1.418-12.543 2.938-18.664 5.315-2.329.895-4.694 1.64-7.074 2.389-11.565 3.82-22.835 8.583-34 13.437-6.7 2.893-13.47 5.514-20.332 7.992q-2.549.931-5.086 1.895C418.944 410.362 399.265 414.855 379 419v-2c1.52-1.045 3.095-2.008 4.688-2.937 10.185-6.301 19.086-14.39 27.312-23.063l-1-2-2.727 1.469C395.898 396.455 384.195 400.97 372 405l-2.684.902c-24.464 8.041-50.378 11.258-75.738 15.282-30.716 4.885-60.312 12.56-86.578 29.816l-2.266 1.168c-2.047 1.826-2.047 1.826-2.324 5.152.339 6.574 3.469 12.594 6.028 18.555q.784 1.87 1.564 3.742c2.373 5.748 2.373 5.748 4.998 11.383-3.957-1.67-7.011-4.338-10.227-7.117l-1.842-1.588c-7.035-6.146-13.649-12.711-20.232-19.335a1617 1617 0 0 0-6.363-6.35l-4.047-4.055-1.922-1.91C166 446.23 166 446.23 166 444c1.48-1.135 1.48-1.135 3.617-2.406l2.475-1.477 2.783-1.617 2.927-1.713c20.43-11.814 41.495-22.538 62.632-33.021a842 842 0 0 0 21.335-10.94q6.872-3.652 13.797-7.201c12.708-6.52 25.285-13.11 37.434-20.625l1.932-1.183c6.635-4.077 12.965-8.185 18.615-13.602C335 349 335 349 337 349l.738-1.602c1.286-2.444 2.753-4.718 4.283-7.016 7.81-11.762 15.015-24.476 17.827-38.445 2.211-10.805 2.211-10.805 4.691-13.789 2.088-1.306 4.183-2.21 6.461-3.148a274 274 0 0 0 6.25-3.437l1.769-.995c28.885-16.574 59.138-38.308 68.919-71.505A81.6 81.6 0 0 0 450 194l.16-3.562c.724-25.053-5.01-48.342-14.16-71.438l-1.07-2.96c-3.663-9.687-9.33-18.304-14.794-27.054C419 87 419 87 418 84c18.535 6.753 34.988 19.405 49 33l2.402 2.324c3.34 3.44 6.47 7.044 9.598 10.676a7307.054 7307.054 0 0 1 1.375-10.75l.383-3.02c1.547-11.992 3.694-23.785 6.242-35.605.26-1.231.52-2.462.79-3.73l.772-3.606.692-3.228c.754-3.093 1.705-6.054 2.746-9.061q1.072-3.434 2.125-6.875l1.07-3.492z"/><path fill="#B0EE33" d="M235 503c4.577.96 9.016 2 13.473 3.414 6.272 1.9 12.64 3.027 19.09 4.149l3.478.63c3.647.645 7.3 1.237 10.959 1.807l3.667.588c14.097 1.975 28.25 1.716 42.458 1.662l4.084-.005c14.144-.019 28.251-.047 42.354-1.245 14.72-1.249 29.458-1.265 44.222-1.305a1797 1797 0 0 0 6.024-.036c3.8-.024 7.599-.026 11.398-.022l3.456-.028c15.505.088 15.505.088 21.022 4.843 3.807 4.45 4.616 7.47 4.526 13.13-.331 3.799-1.622 7.004-3.211 10.418l-1.148 2.605c-7.864 16.84-19.922 31.895-33.223 44.766-1.776 1.71-1.776 1.71-3.629 4.192-2.263 2.757-4.728 4.95-7.441 7.257a419 419 0 0 0-6.086 5.297l-3.786 3.32-1.85 1.651C400.34 614 400.34 614 397 614l1.477-1.45c11.281-11.753 21.2-26.512 27.523-41.55l1.012-2.262c2.714-6.842 3.162-14.768 1.468-21.937-2.768-3.368-7.435-4.539-11.657-5.08-2.318-.11-4.62-.136-6.94-.127l-2.594-.033c-2.722-.034-5.442-.05-8.164-.061-21.422-.09-41.613-1.952-61.125-11.5 6.578 11.7 19.65 17.665 31 24v1c-42.419 2.426-102.288-23.08-134-51z"/><path fill="#020300" d="M505 118c3.081 2.054 3.498 2.556 4.84 5.762l1.014 2.357 1.084 2.569C522.074 156.246 522.074 156.246 539 178l3-5c4.328 1.443 5.485 4.716 7.625 8.5l1.334 2.328c1.358 2.385 2.7 4.778 4.041 7.172l1.183 2.066c20.862 36.532 20.862 36.532 19.505 48.747C575 244 575 244 574 245c-6.973.076-13.838-1.521-20.625-2.937-11.043-2.281-21.94-3.896-33.219-4.297l-3.03-.109q-2.952-.094-5.905-.14l-2.713-.076-2.418-.04c-2.09-.401-2.09-.401-3.8-1.432-2.01-3.067-2.135-6.342-2.45-9.91l-.24-2.512c-1.039-12.134-1.035-24.314-1.038-36.484l-.008-3.845c-.015-45.836-.015-45.836 6.446-65.218"/><path fill="#030400" d="M468 306c-.643 3.742-2.32 6.278-4.43 9.402l-2.144 3.18q-1.149 1.68-2.301 3.356l-1.167 1.706c-13.433 19.599-27.451 36.049-51.872 40.868-8.714 1.379-17.272 1.626-26.086 1.488 0-4 0-4 1.363-5.57l1.95-1.555 2.21-1.836L388 355c6.643-5.708 12.55-11.532 17.93-18.457 10.253-12.595 25.755-17.744 40.444-23.504q3.628-1.439 7.231-2.941l2.08-.86q2.71-1.119 5.417-2.242C464 306 464 306 468 306"/><path fill="#A3E138" d="M410 598c2 3 2 3 2 6-2.266 2.191-2.266 2.191-5.25 4.563l-2.953 2.378c-2.243 1.651-4.263 2.943-6.797 4.059a879 879 0 0 1 13-17"/><path fill="#A5D939" d="M383 945h2q1.293 3.433 2.563 6.875l.748 1.973c.62 1.697 1.16 3.424 1.689 5.152l-1 2c-6.833-6.407-6.833-6.407-7.242-10.312.305-2.188.305-2.188 1.242-5.688"/><path fill="#293F09" d="m390 353 2 1-1.715 1.68-2.223 2.195-2.214 2.18c-1.905 1.815-1.905 1.815-2.848 3.945l9 1v1h-12c0-4 0-4 1.68-5.852l2.195-1.773c.72-.59 1.439-1.18 2.18-1.79L388 355z"/><path fill="#95C82B" d="m533 391 1 2-3 3h5v1l-15 2v-2z"/><path fill="#A2D52D" d="m235 503 9 2-2 1c1.933 2.025 3.632 3.421 6 5l-1 2q-2.724-1.931-5.437-3.875l-3.06-2.18C236 505 236 505 235 503"/><path fill="#93CD30" d="M208 481h3l4 10c-3.578-1.79-5.56-2.927-8-6 .25-2.25.25-2.25 1-4"/><path fill="#92C824" d="M611 735c2.139 2.139 2.427 3.133 3 6-5.75 4-5.75 4-8 4 1.335-3.594 2.96-6.755 5-10"/><path fill="#90C62A" d="M571 529h2c2.429 7.429 2.429 7.429 1 11l-3-2c-.293-2.164-.293-2.164-.187-4.625l.082-2.477z"/><path fill="#A5E02B" d="M360 550c4.108 1.187 5.894 1.894 9 5h-11l3-1z"/><path fill="#A0DD2D" d="m463 314 1 3c-1.855 3.71-4.361 6.815-7 10l-2-1z"/><path fill="#96CF24" d="m405 605 2 1c-1.099 3.297-1.946 4.047-4.562 6.188l-1.942 1.605L399 615l-2-1z"/><path fill="#A1D330" d="M346 551c6.625-.125 6.625-.125 10 1v2l-10-1z"/><path fill="#89C025" d="m490 781 1 3 2 2a101 101 0 0 1-6 3l-2-1z"/><path fill="#93D025" d="M900 422c2.296 3.445 2.54 5.938 3 10l-4-3z"/><path fill="#A7E63B" d="m571 538 3 1v4l-3 1a88 88 0 0 1-1-5z"/><path fill="#A6D832" d="M496 48h2l2 6-4 1z"/><path fill="#A4D71F" d="M385 954h3l2 7c-2.5-1.812-2.5-1.812-5-4z"/></svg>