<?xml version="1.0" standalone="no"?>
<!DOCTYPE svg PUBLIC "-//W3C//DTD SVG 20010904//EN"
 "http://www.w3.org/TR/2001/REC-SVG-20010904/DTD/svg10.dtd">
<svg version="1.0" xmlns="http://www.w3.org/2000/svg"
 width="1024.000000pt" height="1024.000000pt" viewBox="0 0 1024.000000 1024.000000"
 preserveAspectRatio="xMidYMid meet">

<g transform="translate(0.000000,1024.000000) scale(0.100000,-0.100000)"
fill="#000000" stroke="none">
<path d="M0 5120 l0 -5120 5120 0 5120 0 0 5120 0 5120 -5120 0 -5120 0 0
-5120z m5055 4523 c143 -218 263 -368 479 -598 410 -437 576 -634 763 -905 44
-63 84 -114 90 -113 6 1 62 18 124 37 210 63 342 81 609 80 216 0 245 -2 361
-27 355 -75 642 -222 853 -435 l68 -70 -78 23 c-365 106 -646 116 -924 34
-111 -32 -113 -42 -13 -60 93 -17 285 -85 416 -148 518 -246 899 -652 1120
-1196 46 -112 112 -314 105 -321 -3 -2 -53 44 -114 102 -154 150 -263 239
-405 334 -118 78 -444 248 -456 237 -3 -3 20 -46 50 -94 173 -280 275 -598
308 -958 38 -415 -67 -918 -278 -1339 -48 -96 -103 -186 -114 -186 -3 0 -2 19
3 43 5 23 12 146 15 272 4 183 2 254 -11 349 -33 233 -111 488 -204 670 -50
97 -60 98 -61 2 -3 -193 -96 -586 -201 -852 -256 -647 -701 -1208 -1245 -1571
-88 -59 -229 -143 -238 -143 -3 0 19 46 48 103 123 235 202 562 193 801 l-3
90 -54 -95 c-154 -272 -293 -451 -551 -709 -199 -199 -367 -341 -550 -462
-127 -84 -291 -180 -298 -174 -2 3 14 28 36 58 111 149 288 467 363 656 52
129 89 246 81 254 -10 10 -177 -34 -275 -73 -579 -231 -1029 -738 -1222 -1376
-55 -181 -76 -314 -82 -513 -8 -252 21 -431 103 -630 19 -47 38 -92 41 -100 9
-24 -52 49 -108 128 -124 177 -217 431 -265 727 -25 150 -25 473 0 635 89 590
379 1119 780 1422 89 67 153 101 344 182 278 118 429 203 588 332 278 224 404
439 463 783 10 58 20 101 23 95 35 -57 43 -363 14 -493 -9 -41 -15 -76 -13
-78 5 -4 63 66 104 127 142 210 225 545 194 785 -17 131 -44 221 -118 394 -60
141 -65 159 -61 209 4 49 10 60 45 93 99 92 299 70 453 -52 81 -64 157 -165
218 -289 l57 -115 3 60 c5 89 -23 197 -83 320 -101 210 -254 347 -460 411 -50
16 -91 19 -250 18 -164 0 -217 -5 -387 -32 -109 -18 -205 -35 -215 -38 -45
-14 29 32 132 82 126 61 276 112 420 144 55 11 104 25 109 30 34 34 -80 55
-294 54 -153 0 -191 -4 -300 -28 -175 -39 -334 -92 -635 -213 -302 -122 -502
-189 -670 -227 -66 -15 -138 -31 -160 -36 -21 -5 -41 -8 -42 -6 -2 2 26 23 63
46 66 44 225 182 251 220 27 39 3 37 -79 -5 -221 -114 -505 -188 -1068 -281
-355 -58 -539 -112 -751 -220 -123 -63 -189 -115 -189 -149 0 -30 40 -141 90
-250 47 -103 48 -103 -123 52 -148 135 -323 322 -311 333 24 22 307 176 644
350 655 337 877 461 988 550 135 109 240 304 331 620 6 18 40 43 128 95 194
113 368 241 490 358 90 88 119 123 151 185 88 170 122 347 103 534 -30 289
-129 581 -280 828 -21 36 -38 67 -35 69 6 7 205 -108 288 -167 99 -69 189
-149 257 -227 28 -33 55 -61 58 -63 4 -1 8 17 9 40 4 68 42 314 63 413 37 170
93 365 105 365 1 0 37 -53 79 -117z m-2586 -4458 c122 -34 268 -63 417 -80
170 -20 576 -20 909 1 142 8 348 16 459 17 237 2 300 -8 354 -58 32 -28 36
-39 40 -91 3 -49 -1 -72 -23 -124 -76 -182 -280 -436 -517 -642 -62 -54 -114
-96 -116 -93 -3 2 17 28 42 56 26 29 76 96 111 148 129 194 186 361 152 443
-29 69 -41 72 -322 80 -276 7 -370 21 -505 76 -41 16 -78 28 -83 25 -27 -16
78 -105 228 -194 107 -63 107 -65 -12 -48 -291 39 -718 188 -1003 350 -162 92
-302 191 -234 165 9 -4 56 -17 103 -31z"/>
<path d="M5032 8923 c-43 -283 -52 -529 -31 -843 8 -115 15 -170 25 -181 11
-13 45 -17 162 -22 131 -6 249 -23 478 -68 108 -21 114 -6 57 153 -64 179
-263 558 -292 558 -5 0 -15 -16 -22 -35 -7 -19 -16 -35 -19 -35 -10 0 -168
292 -247 458 -43 89 -80 162 -83 162 -3 0 -16 -66 -28 -147z"/>
<path d="M4455 7107 c-253 -105 -334 -148 -365 -196 -14 -20 -85 -96 -159
-169 -89 -89 -131 -136 -124 -143 7 -7 56 -7 147 0 296 23 422 107 631 424 42
64 81 120 86 123 14 8 11 44 -3 44 -7 0 -103 -38 -213 -83z"/>
</g>
</svg>
